<svg width="62" height="62" viewBox="0 0 62 62" fill="none" xmlns="http://www.w3.org/2000/svg">
<rect width="62" height="62" fill="#1E1E1E"/>
<circle cx="31" cy="31" r="31" fill="#FFEAE2"/>
<path d="M50.4728 18.0129L47.0561 11.0791C46.9851 10.9351 46.876 10.814 46.741 10.7294C46.6059 10.6448 46.4504 10.6001 46.2917 10.6002H15.5417C15.383 10.6001 15.2274 10.6448 15.0924 10.7294C14.9573 10.814 14.8482 10.9351 14.7772 11.0791L11.3605 18.0129C11.3014 18.1333 11.2706 18.2661 11.2708 18.4007V47.8695C11.2708 48.5591 11.5408 49.2205 12.0214 49.7081C12.5019 50.1957 13.1537 50.4697 13.8333 50.4697H48C48.6796 50.4697 49.3314 50.1957 49.812 49.7081C50.2925 49.2205 50.5625 48.5591 50.5625 47.8695V18.4007C50.5627 18.2661 50.532 18.1333 50.4728 18.0129ZM16.0691 12.3336H45.7642L48.3267 17.534H13.5066L16.0691 12.3336ZM48 48.7362H13.8333C13.6068 48.7362 13.3895 48.6449 13.2293 48.4824C13.0692 48.3198 12.9792 48.0994 12.9792 47.8695V19.2675H48.8542V47.8695C48.8542 48.0994 48.7642 48.3198 48.604 48.4824C48.4438 48.6449 48.2265 48.7362 48 48.7362Z" fill="black"/>
<path d="M32.6822 21.9523C32.5743 21.8627 32.4465 21.8002 32.3094 21.7703C32.1724 21.7404 32.0301 21.7439 31.8947 21.7804C31.7593 21.817 31.6346 21.8856 31.5313 21.9804C31.4279 22.0752 31.3489 22.1935 31.3008 22.3253L28.8945 28.9327L26.252 26.3722C26.1633 26.2861 26.0573 26.2198 25.9411 26.1777C25.8249 26.1355 25.701 26.1185 25.5777 26.1277C25.4545 26.1369 25.3345 26.1721 25.2258 26.231C25.1171 26.29 25.0222 26.3712 24.9472 26.4695C22.5781 29.5736 21.375 32.6963 21.375 35.75C21.375 38.3027 22.3891 40.7509 24.1941 42.5559C25.9991 44.3609 28.4473 45.375 31 45.375C33.5527 45.375 36.0009 44.3609 37.8059 42.5559C39.6109 40.7509 40.625 38.3027 40.625 35.75C40.625 29.2477 35.0698 23.9375 32.6822 21.9523ZM37.113 36.7716C36.8861 38.0389 36.2763 39.2063 35.3659 40.1166C34.4554 41.0269 33.2879 41.6364 32.0205 41.863C31.9724 41.8712 31.9237 41.8752 31.875 41.875C31.6555 41.8749 31.4441 41.7924 31.2826 41.6437C31.1211 41.4951 31.0214 41.2912 31.0032 41.0724C30.9851 40.8537 31.0498 40.6361 31.1845 40.4629C31.3192 40.2896 31.5142 40.1733 31.7306 40.137C33.543 39.8319 35.0808 38.2941 35.3881 36.4784C35.427 36.2496 35.5552 36.0455 35.7445 35.9112C35.9338 35.7768 36.1688 35.7232 36.3977 35.762C36.6265 35.8009 36.8306 35.9291 36.9649 36.1184C37.0993 36.3077 37.1529 36.5427 37.1141 36.7716H37.113Z" fill="#E2713F"/>
</svg>
